<?xml version="1.0" standalone="no"?>
<!DOCTYPE svg PUBLIC "-//W3C//DTD SVG 20010904//EN"
 "http://www.w3.org/TR/2001/REC-SVG-20010904/DTD/svg10.dtd">
<svg version="1.0" xmlns="http://www.w3.org/2000/svg"
 width="183.000000pt" height="149.000000pt" viewBox="0 0 183.000000 149.000000"
 preserveAspectRatio="xMidYMid meet">

<g transform="translate(0.000000,149.000000) scale(0.100000,-0.100000)"
fill="#000000" stroke="none">
<path d="M20 1439 c-18 -65 -13 -69 90 -69 102 0 108 4 93 67 l-9 38 -81 3
-82 3 -11 -42z m115 18 c13 -10 16 -21 11 -41 -5 -22 -12 -27 -33 -24 -38 4
-52 32 -29 57 22 25 26 25 51 8z"/>
<path d="M17 1333 c-4 -3 -7 -14 -7 -23 0 -15 24 -18 227 -23 124 -4 358 -7
518 -7 l292 0 11 25 c7 14 12 28 12 30 0 8 -1046 6 -1053 -2z"/>
<path d="M1096 1318 c-9 -36 -8 -38 28 -38 29 0 36 5 45 30 10 30 10 30 -28
30 -32 0 -40 -4 -45 -22z"/>
<path d="M1203 1310 l-11 -30 38 0 c33 0 39 4 49 30 10 30 10 30 -27 30 -33 0
-39 -4 -49 -30z"/>
<path d="M1311 1310 c-10 -30 -10 -30 28 -30 31 0 40 5 49 25 16 35 17 35 -27
35 -34 0 -40 -4 -50 -30z"/>
<path d="M1422 1315 c-16 -35 -17 -35 27 -35 34 0 40 4 50 30 10 30 10 30 -28
30 -31 0 -40 -5 -49 -25z"/>
<path d="M1532 1315 c-16 -35 -17 -35 27 -35 34 0 40 4 50 30 10 30 10 30 -28
30 -31 0 -40 -5 -49 -25z"/>
<path d="M1642 1315 c-7 -14 -12 -28 -12 -31 0 -3 41 -3 91 -2 75 2 94 6 103
21 17 27 -8 37 -95 37 -72 0 -76 -1 -87 -25z"/>
<path d="M162 1243 c-152 -4 -153 -4 -150 -26 l3 -22 528 -3 c290 -1 527 0
527 2 0 3 -5 17 -12 31 l-11 25 -366 -2 c-201 -1 -435 -4 -519 -5z"/>
<path d="M1094 1228 c3 -13 6 -26 6 -30 0 -5 18 -8 39 -8 l40 0 -10 30 c-9 26
-16 30 -46 30 -32 0 -35 -2 -29 -22z"/>
<path d="M1203 1220 c10 -26 16 -30 49 -30 37 0 37 0 27 30 -10 26 -16 30 -49
30 l-38 0 11 -30z"/>
<path d="M1311 1220 c10 -26 16 -30 50 -30 44 0 43 0 27 35 -9 20 -18 25 -49
25 -38 0 -38 0 -28 -30z"/>
<path d="M1410 1245 c0 -2 5 -16 12 -30 9 -20 18 -25 49 -25 38 0 38 0 28 30
-10 26 -16 30 -50 30 -21 0 -39 -2 -39 -5z"/>
<path d="M1520 1245 c0 -2 5 -16 12 -30 9 -20 18 -25 49 -25 38 0 38 0 28 30
-10 26 -16 30 -50 30 -21 0 -39 -2 -39 -5z"/>
<path d="M1630 1245 c0 -2 5 -16 12 -30 11 -24 15 -25 88 -25 57 0 81 4 90 15
10 12 10 18 0 30 -9 11 -35 15 -101 15 -49 0 -89 -2 -89 -5z"/>
<path d="M39 1111 l-29 -29 0 -509 c0 -555 -2 -537 58 -562 16 -7 65 -11 118
-9 82 3 89 5 92 24 3 21 -2 22 -78 26 -78 3 -83 5 -111 36 l-29 32 0 451 0
451 34 34 c33 33 37 34 110 34 74 0 76 1 76 25 l0 25 -106 0 c-103 0 -106 -1
-135 -29z"/>
<path d="M1564 1125 c-10 -25 6 -35 60 -35 29 0 67 -5 84 -11 63 -22 62 -12
62 -512 l0 -453 -30 -29 c-26 -25 -40 -30 -102 -34 -64 -5 -73 -8 -73 -26 0
-18 8 -20 89 -23 102 -3 135 7 159 47 15 26 17 77 17 521 0 533 0 533 -55 558
-39 18 -204 16 -211 -3z"/>
<path d="M830 904 c-109 -30 -181 -90 -229 -194 -37 -79 -37 -200 1 -282 124
-267 508 -267 631 0 31 67 31 217 0 284 -69 150 -248 236 -403 192z m132 -59
c-5 -92 -11 -105 -42 -105 -16 0 -31 4 -34 8 -3 5 -8 39 -12 76 l-7 67 49 -3
49 -3 -3 -40z m-193 -72 c43 -50 48 -78 19 -96 -13 -8 -27 -3 -67 24 -28 19
-53 40 -56 48 -5 13 40 71 56 71 4 0 26 -21 48 -47z m378 25 c13 -12 23 -29
23 -39 0 -22 -95 -93 -115 -85 -23 8 -29 34 -16 60 14 25 69 86 78 86 4 0 17
-10 30 -22z m-404 -195 c4 -2 7 -17 7 -33 0 -33 -12 -39 -95 -43 l-50 -2 -3
49 -3 48 68 -7 c37 -4 71 -9 76 -12z m482 -33 l0 -45 -50 3 c-88 4 -97 9 -93
45 3 30 6 32 48 38 89 12 95 10 95 -41z m-277 28 c32 -32 -4 -87 -48 -73 -25
8 -37 50 -20 70 15 18 51 20 68 3z m171 -169 c28 -22 51 -45 51 -49 0 -13 -52
-60 -66 -60 -11 0 -84 98 -84 112 0 9 30 38 39 38 5 0 31 -18 60 -41z m-301 0
c3 -17 -63 -129 -76 -129 -4 0 -23 14 -42 31 l-34 32 48 44 c51 46 97 56 104
22z m135 -74 c4 -22 7 -56 5 -75 -3 -34 -5 -35 -43 -35 l-40 0 1 61 c1 82 7
96 41 92 23 -2 29 -9 36 -43z"/>
</g>
</svg>
